<?xml version="1.0" standalone="no"?>
<!DOCTYPE svg PUBLIC "-//W3C//DTD SVG 20010904//EN"
 "http://www.w3.org/TR/2001/REC-SVG-20010904/DTD/svg10.dtd">
<svg version="1.0" xmlns="http://www.w3.org/2000/svg"
 width="700.000000pt" height="700.000000pt" viewBox="0 0 700.000000 700.000000"
 preserveAspectRatio="xMidYMid meet">
<metadata>
Created by potrace 1.11, written by Peter Selinger 2001-2013
</metadata>
<g transform="translate(0.000000,700.000000) scale(0.100000,-0.100000)"
fill="#000000" stroke="none">
<path d="M3502 5908 c-13 -50 -92 -411 -98 -448 -4 -20 -12 -61 -19 -90 -1 -3
-7 -32 -14 -65 -22 -105 -21 -104 -44 -55 -62 139 -199 410 -207 410 -11 0
-19 -53 -25 -170 -3 -52 -7 -122 -10 -155 -2 -33 -7 -107 -10 -165 -3 -58 -8
-130 -11 -161 -3 -42 -1 -61 10 -71 20 -21 870 -22 887 -2 10 12 9 105 -6 339
-2 39 -7 111 -10 160 -8 124 -17 219 -21 224 -11 12 -40 -38 -134 -228 -59
-119 -107 -205 -111 -198 -3 6 -9 28 -13 47 -7 43 -9 52 -42 215 -38 194 -95
439 -104 448 -4 5 -12 -11 -18 -35z"/>
<path d="M1861 5403 c-18 -46 -59 -213 -75 -305 -36 -204 -40 -519 -9 -693 3
-16 6 -73 8 -125 6 -223 -70 -409 -239 -588 -96 -102 -252 -187 -406 -222 -30
-7 -61 -17 -67 -23 -25 -19 -14 -46 25 -62 134 -59 170 -83 224 -156 56 -74
87 -227 66 -322 -21 -94 -87 -183 -186 -250 -25 -17 -42 -36 -42 -48 0 -22 -8
-21 150 -23 114 -1 130 -3 183 -28 209 -98 281 -293 201 -542 -17 -53 -12 -96
11 -96 8 0 31 12 52 26 83 57 239 117 358 139 41 7 191 7 240 0 137 -21 261
-73 365 -153 83 -64 150 -144 257 -306 77 -118 128 -183 189 -243 235 -230
425 -243 653 -44 108 94 142 136 271 336 184 286 405 415 713 417 158 1 309
-44 452 -134 92 -58 114 -42 82 56 -29 92 -32 264 -6 334 29 75 114 164 197
204 65 32 70 33 200 33 103 0 135 3 141 14 14 22 3 38 -42 65 -130 77 -198
212 -184 369 14 155 102 273 249 332 83 33 97 48 73 75 -9 10 -31 22 -49 25
-148 30 -309 111 -415 210 -180 169 -279 437 -250 680 20 167 23 212 24 360 0
159 -8 273 -24 363 -5 26 -12 66 -16 90 -9 62 -62 243 -75 256 -8 8 -24 -3
-56 -39 -231 -256 -404 -549 -515 -874 -29 -85 -62 -164 -72 -174 -16 -16 -29
-18 -72 -14 -58 5 -133 35 -154 60 -18 23 -9 80 34 207 70 208 151 368 300
592 14 20 20 40 15 43 -24 15 -359 -287 -465 -420 -22 -27 -48 -57 -57 -66 -9
-10 -24 -29 -34 -44 -35 -53 -30 -52 -569 -50 -275 1 -506 2 -512 3 -14 2 -27
17 -123 132 -150 182 -450 455 -486 443 -7 -2 19 -50 60 -112 117 -174 204
-356 266 -556 42 -137 44 -150 23 -170 -44 -45 -154 -71 -218 -54 -26 7 -33
16 -44 56 -70 255 -168 474 -307 683 -92 140 -272 360 -293 360 -5 0 -14 -12
-20 -27z m804 -1955 c115 -58 215 -146 285 -249 69 -100 96 -191 78 -255 -12
-44 -39 -58 -104 -51 -91 9 -181 63 -284 168 -105 107 -161 198 -178 289 -24
130 61 171 203 98z m1891 10 c29 -31 24 -121 -9 -186 -108 -214 -311 -382
-461 -382 -69 0 -93 37 -84 125 20 171 273 432 449 463 56 10 83 5 105 -20z
m-757 -1603 c6 -7 -11 -32 -51 -75 -232 -250 -225 -244 -258 -217 -14 11 -204
217 -243 264 -11 12 -17 26 -14 30 8 13 554 10 566 -2z"/>
</g>
</svg>
